<?xml version="1.0" encoding="UTF-8" standalone="no"?><!DOCTYPE svg PUBLIC "-//W3C//DTD SVG 1.1//EN" "http://www.w3.org/Graphics/SVG/1.1/DTD/svg11.dtd"><svg width="100%" height="100%" viewBox="0 0 4267 4267" version="1.1" xmlns="http://www.w3.org/2000/svg" xmlns:xlink="http://www.w3.org/1999/xlink" xml:space="preserve" xmlns:serif="http://www.serif.com/" style="fill-rule:evenodd;clip-rule:evenodd;stroke-linejoin:round;stroke-miterlimit:2;"><g id="Background"><path d="M2669.831,1744.747c69.025,-74.528 410.323,-445.489 472.264,-514.93c11.357,-12.733 -7.749,-43.424 19.677,-72.269c56.285,-59.197 157.805,32.15 83.537,92.359c-10.058,8.154 4.019,32.327 17.548,65.377c91.21,222.807 87.243,229.334 97.56,229.272c111.123,-0.659 86.396,124.913 8.352,123.275c-38.971,-0.818 -36.891,-30.255 -58.517,-16.01c-74.836,49.293 -372.751,242.851 -373.586,243.432c-8.297,5.775 13.276,26.859 21.771,37.571c35.712,45.031 40.67,39.272 92.977,62.471c22.9,10.156 19.33,-13.551 46.421,-15.327c61.154,-4.011 58.434,90.817 0.061,85.056c-45.373,-4.478 -39.704,-48.316 -40.59,-50.854c-2.193,-6.281 -68.061,-32.136 -71.901,-32.838c-8.658,-1.582 -156.057,28.65 -178.99,34.237c-0.895,0.218 -17.699,4.312 -7.527,-8.712c11.761,-15.059 94.3,-140.635 95.272,-141.901c9.757,-12.723 23.771,26.901 32.795,23.06c0.273,-0.116 377.662,-246.26 382.419,-249.688c8.27,-5.96 -0.164,-17.732 -0.526,-18.049c-8.438,-7.375 -294.29,30.924 -297.836,23.204c-5.217,-11.358 37.289,-11.38 78.634,-15.798c199.717,-21.338 217.228,-17.313 219.263,-26.103c6.786,-29.313 9.754,-28.109 30.603,-49.568c5.489,-5.65 -4.149,-26.073 -96.363,-253.848c-10.445,-25.799 -4.642,-37.452 -32.697,-36.298c-17.713,0.729 -35.662,-10.042 -37.476,-10.201c-5.142,-0.451 -17.985,20.314 -19.225,22.318c-359.317,580.962 -360.102,580.433 -390.809,631.276c-47.099,77.987 -434.307,700.446 -437.113,703.987c-3.007,3.795 -6.291,4.318 -47.381,-37.656c-428.759,-437.981 -431.173,-435.111 -466.423,-475.035c-3.74,-4.236 -5.153,-6.795 34.296,-70.452c37.68,-60.802 79.253,-133.046 84.647,-133.684c9.997,-1.181 295.651,323.01 304.463,322.26c6.19,-0.527 322.657,-351.493 434.4,-469.934Z" style="fill:#25b7ea;"/><path d="M2660.134,1572.591c8.582,-7.041 62.993,-51.685 104.6,-91.176c3.796,-3.603 221.83,-210.547 52.761,-38.681c-152.229,154.749 -460.505,526.075 -474.437,532.662c-10.846,5.128 -168.757,-157.161 -222.888,-203.753c-0.628,-0.541 -28.015,-32.431 2.193,-10.123c58.522,43.218 183.388,115.125 183.879,115.12c16.491,-0.14 10.642,-22.964 10.106,-25.057c-16.193,-63.191 -59.055,-254.593 -66.97,-283.298c-4.027,-14.605 -28.938,-2.363 -43.789,-28.283c-37.786,-65.951 77.746,-96.852 80.813,-25.467c0.825,19.197 6.84,16.188 24.715,23.07c21.272,8.19 262.945,101.237 265.941,102.252c8.1,2.742 7.702,-1.752 83.076,-67.266Zm-258.472,224.853c-66.618,58.432 -71.74,61.347 -74.114,54.387c-2.732,-8.014 -54.958,-234.869 -62.669,-266.492c-3.518,-14.43 -13.29,-19.434 6.754,-34.808c4.518,-3.465 8.281,-13.057 17.557,-9.681c21.515,7.83 20.842,9.303 267.22,102.479c9.606,3.633 15.121,5.389 7.439,12.141c-12.952,11.384 -136.564,120.026 -162.187,141.974Z" style="fill:#29b6eb;"/><path d="M2269.238,2689.976c-108.07,145.542 -105.616,150.315 -113.011,149.911c-3.153,-0.172 -68.755,-23.873 -74.707,-26.023c1.743,-8.391 3.814,-8.981 0.416,-12.03c-9.84,-8.827 -49.242,-60.067 -38.961,-154.025c3.257,-29.763 27.242,-0.773 93.011,23.488c54.573,20.131 121.078,15.869 124.431,15.007c7.247,-1.863 5.862,2.44 8.821,3.672Z" style="fill:#5f5f5f;"/><path d="M2269.238,2689.976c-2.959,-1.232 -1.574,-5.535 -8.821,-3.672c-3.352,0.862 -69.858,5.124 -124.431,-15.007c-65.769,-24.261 -89.755,-53.25 -93.011,-23.488c-10.281,93.957 29.121,145.198 38.961,154.025c3.398,3.048 1.327,3.639 -0.416,12.03c-84.885,-34.602 -284.212,-112.427 -393.633,-298.276c-11.28,-19.159 -19.425,0.491 -177.524,48.816c-250.419,76.545 -408.693,5.927 -696.204,-102.881c-72.164,-27.31 -73.01,-26.45 -217.392,-124.345c-76.761,-52.046 -30.685,-84.24 -6.356,-193.232c51.683,-231.531 40.124,-239.664 214.187,-501.286c124.257,-186.763 176.038,-351.196 198.903,-376.869c74.753,-83.936 203.196,-130.708 460.513,-203.26c83.863,-23.646 75.415,17.15 144.558,128.21c38.971,62.596 51.493,79.522 16.754,109.492c-15.708,13.552 -17.387,-5.407 -41.605,-55.647c-3.72,-7.716 -7.476,-15.444 -8.128,-16.786c-98.378,-202.402 24.174,78.377 25.63,91.079c2.073,18.075 -11.702,25.396 -41.188,40.727c-14.602,7.592 -10.914,-6.095 -52.39,-116.778c-0.808,-2.156 -13.319,-35.544 -16.36,-23.676c-2.023,7.897 63.184,156.15 32.187,171.544c-43.47,21.588 -48.214,6.501 -49.401,2.725c-9.213,-29.306 -56.375,-196.446 -46.678,-128.829c0.417,2.906 15.092,50.356 25.268,120.738c6.67,46.129 -12.935,45.252 -58.938,37.759c-54.644,-8.901 -74.538,-10.26 -74.776,-41.845c-0.03,-4.023 4.89,-39.932 27.747,-22.967c18.085,13.423 32.57,36.152 25.138,14.742c-0.024,-0.068 0.009,-0.009 -27.758,-37.897c-5.244,-7.156 -13.745,-2.02 -29.186,-16.954c-28.779,-27.836 5.466,14.661 0.583,30.035c-6.59,20.753 -81.8,87.584 -179.251,35.268c-1.168,-0.627 -41.303,-22.173 -16.533,1.14c20.771,19.549 39.232,18.564 22.324,41.158c-21.248,28.394 -20.636,28.719 -159.135,231.315c-0.63,0.922 -38.109,57.425 0.667,13.938c9.928,-11.134 6.747,-13.614 118.787,-143.728c18.477,-21.458 17.714,-21.478 34.737,-44.301c23.949,-32.108 -4.196,25.674 -5.183,27.701c-24.939,51.201 -25.065,82.312 -136.409,346.188c-0.862,2.042 -19.052,45.153 -2.732,27.576c5.957,-6.416 46.322,-83.758 50.173,-91.136c22.377,-42.876 27.218,-66.173 31.031,-45.857c45.949,244.849 35.56,268.001 -59.093,392.258c-5.74,7.535 -0.344,10.372 3.806,8.003c5.441,-3.107 80.652,-86.279 92.183,-90.081c47.175,-15.556 120.621,-113.214 283.036,-89.664c77.482,11.235 135.429,68.518 144.335,61.524c51.472,-40.422 49.793,-43.409 110.272,-67.667c77.271,-30.994 181.871,-37.836 182.765,-30.589c0.489,3.965 -98.475,160.998 -97.335,171.055c1.064,9.391 6.974,5.571 343.278,349.671c4.267,4.366 4.103,4.163 8.281,8.385c181.004,182.91 183.533,181.215 193.731,201.089c4.337,8.451 -8.564,26.557 -9.966,28.526Zm-277.133,-116.808c3.803,25.128 4.134,24.746 8.542,49.697c0.908,5.141 -4.885,10.184 -9.587,-0.771c-33.907,-78.999 -152.976,-123.528 -257.998,-308.513c-47.121,-82.999 -66.601,-133.851 -108.63,-175.152c-27.519,-27.042 36.229,3.315 79.777,65.142c87.675,124.476 70.49,141.878 339.506,365.22c16.619,13.797 53.193,35.843 37.447,36.199c-6.85,0.155 -72.943,-47.872 -79.049,-52.944c-0.992,-0.824 -17.623,-14.64 -15.571,-4.194c0.4,2.035 0.916,1.676 5.564,25.315Zm-543.698,-236.147c-255.594,61.632 -355.609,-157.185 -333.855,-155.576c8.183,0.605 21.477,77.236 150.449,119.206c59.839,19.473 182.685,18.08 233.053,6.403c55.322,-12.826 -4.082,13.44 -5.171,13.912c-21.924,9.512 -21.941,8.496 -44.477,16.055Z" style="fill:#5a5a59;"/><path d="M1623.35,1411.128c-40.758,19.765 -62.116,34.254 -98.943,6.089c-11.304,-8.646 9.538,-8.666 21.721,-24.777c4.043,-5.346 7.526,-9.953 69.59,-46.653c8.52,-5.038 49.767,35.34 7.632,65.341Z" style="fill:#5e5e5f;"/><path d="M2550.563,1352.415c4.26,15.501 7.429,13.68 22.841,19.052c40.837,14.233 245.572,78.638 191.184,76.775c-3.784,-0.13 -208.55,-74.4 -217.074,-72.174c-1.873,0.489 -15.093,14.293 -32.93,9.347c-44.633,-12.375 -5.79,-80.606 27.684,-48.381c6.316,6.081 8.129,14.979 8.296,15.381Z" style="fill:#30b8ec;"/><path d="M2010.715,1658.132c2.592,0.159 23.179,1.42 28.909,14.766c5.677,13.222 0.569,23.239 -0.496,24.746c-28.326,40.087 -82.827,-19.999 -28.414,-39.512Z" style="fill:#30b9f0;"/><path d="M634.271,2001.965c5.173,-38.277 25.561,-17.506 25.518,-12.688c-0.178,20.018 -10.355,17.242 -11.946,16.808c-1.347,-0.367 -3.678,0.231 -3.988,0.311c-7.784,1.999 -9.103,-4.209 -9.584,-4.431Z" style="fill:#5c5b5c;"/></g></svg>